<svg version="1.1" xmlns="http://www.w3.org/2000/svg" xmlns:xlink="http://www.w3.org/1999/xlink" width="74" height="98"><defs/><g><path fill="rgb(255,30,56)" stroke="none" paint-order="stroke fill markers" fill-rule="evenodd" d=" M 25.15097403526306 1.9015766382217407 C 27.614040553569794 1.8526471853256226 29.364821314811707 3.0181467533111572 30.763621747493744 4.100466251373291 C 31.33860456943512 4.544745683670044 32.02499681711197 5.148535132408142 32.19309037923813 5.982293009757996 C 32.242122769355774 9.63243019580841 32.2912163734436 13.283545970916748 32.34024876356125 16.933683156967163 C 32.38230276107788 19.582723736763 32.42435675859451 22.233721494674683 32.46634954214096 24.88276207447052 C 32.102065205574036 25.320191383361816 31.737597227096558 25.75664210319519 31.37325167655945 26.194071412086487 C 30.26944136619568 27.58268928527832 28.634110152721405 28.699259400367737 26.51739227771759 29.047637104988098 C 25.340308845043182 29.241397738456726 25.480060338974 28.400789737701416 25.340186417102814 27.525931119918823 C 25.277136027812958 26.511134266853333 25.214024424552917 25.496337413787842 25.15097403526306 24.48154056072235 C 25.14399564266205 24.12141978740692 25.13695603609085 23.762277603149414 25.129977643489838 23.403135418891907 C 25.03889125585556 20.125840663909912 24.9477436542511 16.848545908927917 24.85665726661682 13.572229743003845 C 24.842700481414795 12.810887455940247 24.828682482242584 12.049545168876648 24.814664483070374 11.28820288181305 C 24.793606877326965 9.977872133255005 24.77261048555374 8.666562795639038 24.751552879810333 7.356232047080994 C 24.737596094608307 6.024372339248657 24.723516881465912 4.692512631416321 24.709560096263885 3.3606529235839844 C 24.7094988822937 3.0915409326553345 24.624350249767303 2.1090375185012817 24.73055648803711 1.985735297203064 C 24.870675265789032 1.9583348035812378 25.01085525751114 1.9299557209014893 25.15097403526306 1.9015766382217407 Z M 22.271040380001068 1.985735297203064 C 22.537321150302887 11.167836427688599 22.80366313457489 20.351894736289978 23.069882690906525 29.533995866775513 C 22.373145282268524 29.680784225463867 21.67536723613739 30.272830605506897 21.156946122646332 30.65448033809662 C 19.129478216171265 32.147807240486145 17.33468461036682 35.162840127944946 18.17190808057785 39.00575935840607 C 18.33645123243332 39.76123011112213 18.48477268218994 40.52159380912781 18.76054161787033 41.183120012283325 C 20.203844606876373 44.02298545837402 21.647576093673706 46.863829493522644 23.09087908267975 49.70369493961334 C 23.588365018367767 50.690112709999084 24.085973381996155 51.67653048038483 24.58339810371399 52.66392683982849 C 26.40237122774124 55.80128335952759 27.877627909183502 59.16371536254883 29.69158148765564 62.28345727920532 C 31.11560207605362 64.73188710212708 32.384200394153595 67.24979674816132 33.85376417636871 69.61896085739136 C 34.63601750135422 70.88036215305328 35.36501467227936 72.18384277820587 36.41838467121124 73.17123913764954 C 37.7620313167572 74.43068325519562 40.142030477523804 75.30358469486237 42.72470909357071 74.65086579322815 C 43.599517941474915 74.4297046661377 44.41703051328659 74.14493525028229 45.16322880983353 73.78481447696686 C 45.33530128002167 73.70163440704346 45.757494032382965 73.35032093524933 45.91995590925217 73.44622266292572 C 53.13653206825256 79.14650392532349 60.35525071620941 84.84972095489502 67.57182687520981 90.55000221729279 C 67.5648484826088 90.5637024641037 67.5578088760376 90.57838129997253 67.55083048343658 90.59208154678345 C 67.15147054195404 90.83868598937988 66.75198817253113 91.08529043197632 66.35262823104858 91.33189487457275 C 65.45578235387802 91.81140351295471 64.55869162082672 92.29091215133667 63.66190695762634 92.7694422006607 C 60.112904608249664 94.3488849401474 56.296335995197296 95.97138559818268 52.0791831612587 96.82960820198059 C 51.43460005521774 96.82960820198059 50.789833307266235 96.82960820198059 50.14525020122528 96.82960820198059 C 48.93345844745636 96.82960820198059 47.473566472530365 96.95388901233673 46.403423845767975 96.74447095394135 C 41.27901875972748 95.740438580513 37.7382190823555 93.82436120510101 34.190134942531586 91.28981554508209 C 28.322959542274475 87.09949719905853 23.514296114444733 81.65364909172058 19.201955556869507 75.89856684207916 C 16.54949301481247 72.35803163051605 13.900886952877045 68.7108302116394 11.529212892055511 64.90509736537933 C 10.996712565422058 63.953908801078796 10.464089810848236 63.00174164772034 9.931589484214783 62.0505530834198 C 9.567243933677673 61.253981590270996 9.20283716917038 60.45741009712219 8.83849161863327 59.66181719303131 C 7.676711678504944 56.9746116399765 6.707388460636139 54.093645453453064 5.811460793018341 51.09916293621063 C 4.731279075145721 47.48816931247711 4.181883692741394 43.63350701332092 3.393998682498932 39.68196439743042 C 3.1768115162849426 38.04772067070007 2.959563136100769 36.412498354911804 2.7423147559165955 34.777276039123535 C 2.5741599798202515 32.92382836341858 2.4060052037239075 31.070380687713623 2.2378504276275635 29.216933012008667 C 2.2027748227119446 28.54757809638977 2.16776043176651 27.878223180770874 2.1327460408210754 27.208868265151978 C 2.0766740441322327 26.115784287452698 2.02060204744339 25.02367889881134 1.9645300507545471 23.931573510169983 C 1.9645300507545471 23.713348150253296 1.9645300507545471 23.494144201278687 1.9645300507545471 23.275918841362 C 1.9505120515823364 22.670172214508057 1.9364940524101257 22.06344699859619 1.9225372672080994 21.45770037174225 C 1.8338382244110107 20.890118718147278 1.855263113975525 20.05929660797119 1.9435336589813232 19.513243913650513 C 1.9855876564979553 18.94859802722931 2.0276416540145874 18.384930729866028 2.069634437561035 17.821263432502747 C 2.3091647028923035 16.503103971481323 2.4953163862228394 15.228002429008484 2.9315271377563477 14.100667834281921 C 5.158736228942871 8.343628406524658 9.346261501312256 5.101562857627869 15.39714002609253 3.1913570165634155 C 17.398591995239258 2.559188485145569 19.741740345954895 2.002371311187744 22.271040380001068 1.985735297203064 Z M 53.634752571582794 68.2029424905777 C 56.19129282236099 68.14324855804443 57.55581343173981 69.63266110420227 59.0371915102005 70.6973659992218 C 62.06777274608612 72.8766838312149 64.89089983701706 75.29869174957275 67.84514725208282 77.54748940467834 C 69.20360767841339 78.58185803890228 71.2469300031662 79.79824423789978 71.81811755895615 81.56459748744965 C 72.13826662302017 82.55395102500916 71.77894061803818 83.52568995952606 71.52386200428009 84.33400452136993 C 71.01235806941986 85.95454800128937 70.50073170661926 87.57607007026672 69.98928898572922 89.19661355018616 C 69.9612529873848 89.16823446750641 69.93321698904037 89.14083397388458 69.90518099069595 89.11245489120483 C 62.49945366382599 83.2076485157013 55.09152263402939 77.30088496208191 47.68573409318924 71.39509999752045 C 47.69277369976044 71.38139975070953 47.69975209236145 71.3667209148407 47.70679169893265 71.35302066802979 C 49.682595014572144 70.30299460887909 51.6589492559433 69.2529685497284 53.634752571582794 68.2029424905777 Z"/></g></svg>