<svg version="1.1" xmlns="http://www.w3.org/2000/svg" xmlns:xlink="http://www.w3.org/1999/xlink" width="19" height="24"><defs/><g><path fill="rgb(139,139,139)" stroke="none" paint-order="stroke fill markers" fill-rule="evenodd" d=" M 6.7853240966796875 1.2976226806640625 C 7.3454742431640625 1.2866621017456055 7.7435760498046875 1.5491070747375488 8.0616455078125 1.7920665740966797 C 8.192413330078125 1.8925385475158691 8.3485107421875 2.027719020843506 8.386734008789062 2.2158756256103516 C 8.397872924804688 3.0373101234436035 8.409011840820312 3.85813570022583 8.420150756835938 4.679570198059082 C 8.429763793945312 5.2757039070129395 8.439300537109375 5.871837615966797 8.44891357421875 6.467971324920654 C 8.365982055664062 6.566616535186768 8.283203125 6.665261745452881 8.200271606445312 6.763298034667969 C 7.9492645263671875 7.075674533843994 7.5774078369140625 7.326550006866455 7.0960693359375 7.4051008224487305 C 6.82843017578125 7.448943138122559 6.86016845703125 7.259568691253662 6.8283538818359375 7.062887191772461 C 6.8140869140625 6.8345417976379395 6.79974365234375 6.606196403503418 6.7853240966796875 6.3778510093688965 C 6.7837982177734375 6.2968645095825195 6.782196044921875 6.215878009796143 6.7805938720703125 6.135500431060791 C 6.759918212890625 5.398097038269043 6.739166259765625 4.660693645477295 6.718414306640625 3.923290252685547 C 6.7152099609375 3.752183437347412 6.7120819091796875 3.5810766220092773 6.7088775634765625 3.4099698066711426 C 6.704071044921875 3.114643096923828 6.6993408203125 2.819925308227539 6.694610595703125 2.5245985984802246 C 6.69140625 2.2250094413757324 6.688201904296875 1.9254202842712402 6.68499755859375 1.625831127166748 C 6.68499755859375 1.5655479431152344 6.665618896484375 1.3439006805419922 6.6898040771484375 1.3164992332458496 C 6.72161865234375 1.3104100227355957 6.753509521484375 1.3037118911743164 6.7853240966796875 1.2976226806640625 Z M 6.1304931640625 1.3164992332458496 C 6.1909942626953125 3.382568359375 6.2515716552734375 5.449246406555176 6.3121490478515625 7.514706611633301 C 6.1537628173828125 7.548197269439697 5.9950714111328125 7.680942058563232 5.877197265625 7.7667999267578125 C 5.4161529541015625 8.102315425872803 5.0079803466796875 8.781262397766113 5.198333740234375 9.645930290222168 C 5.2357940673828125 9.815819263458252 5.269439697265625 9.986926078796387 5.3322296142578125 10.135502815246582 C 5.660369873046875 10.774869918823242 5.988739013671875 11.413628101348877 6.3168792724609375 12.052386283874512 C 6.430023193359375 12.27464246749878 6.5431671142578125 12.496898651123047 6.65631103515625 12.718545913696289 C 7.069976806640625 13.424894332885742 7.405364990234375 14.181174278259277 7.8178863525390625 14.883260250091553 C 8.141677856445312 15.434333801269531 8.430145263671875 16.000630378723145 8.764312744140625 16.53343629837036 C 8.942230224609375 16.817193508148193 9.108016967773438 17.11069345474243 9.347503662109375 17.3329496383667 C 9.653060913085938 17.616097927093506 10.194290161132812 17.812779426574707 10.781600952148438 17.665420532226562 C 10.980499267578125 17.616097927093506 11.166427612304688 17.551552295684814 11.336105346679688 17.470565795898438 C 11.375244140625 17.45168924331665 11.471221923828125 17.373138427734375 11.508148193359375 17.394450664520264 C 13.149154663085938 18.67744731903076 14.790695190429688 19.96044397354126 16.43170166015625 21.242831707000732 C 16.430099487304688 21.24587631225586 16.428497314453125 21.248920917510986 16.426895141601562 21.25257444381714 C 16.336181640625 21.30798625946045 16.2452392578125 21.36339807510376 16.154449462890625 21.41880989074707 C 15.950515747070312 21.526588916778564 15.74658203125 21.63436794281006 15.542572021484375 21.742146968841553 C 14.735610961914062 22.09775686264038 13.867691040039062 22.46250057220459 12.90875244140625 22.65552854537964 C 12.762115478515625 22.65552854537964 12.615554809570312 22.65552854537964 12.468917846679688 22.65552854537964 C 12.19342041015625 22.65552854537964 11.861465454101562 22.683538913726807 11.618087768554688 22.63665199279785 C 10.452850341796875 22.41074228286743 9.64764404296875 21.979626178741455 8.840835571289062 21.40967607498169 C 7.506683349609375 20.46645736694336 6.413238525390625 19.241308212280273 5.43255615234375 17.946742057800293 C 4.8294525146484375 17.149664402008057 4.2271881103515625 16.329447746276855 3.6878662109375 15.47269582748413 C 3.5667877197265625 15.258964538574219 3.4456329345703125 15.044624328613281 3.324554443359375 14.83089303970337 C 3.24169921875 14.651261329650879 3.158843994140625 14.472238540649414 3.07598876953125 14.29321575164795 C 2.8117828369140625 13.688557147979736 2.59136962890625 13.04066514968872 2.387664794921875 12.366589546203613 C 2.1420745849609375 11.554288864135742 2.0171051025390625 10.687185287475586 1.837890625 9.798160552978516 C 1.7885284423828125 9.43037223815918 1.7390899658203125 9.062583923339844 1.689727783203125 8.694795608520508 C 1.6515045166015625 8.277684688568115 1.6132049560546875 7.859964847564697 1.5750579833984375 7.44346284866333 C 1.567047119140625 7.292450428009033 1.5590362548828125 7.142046928405762 1.5511016845703125 6.99164342880249 C 1.538360595703125 6.745639324188232 1.5256195068359375 6.499635219573975 1.51287841796875 6.254240036010742 C 1.51287841796875 6.2049174308776855 1.51287841796875 6.155594825744629 1.51287841796875 6.106881141662598 C 1.509674072265625 5.97048282623291 1.5064697265625 5.834084510803223 1.5033416748046875 5.697686195373535 C 1.483123779296875 5.569812774658203 1.488006591796875 5.382874011993408 1.5080718994140625 5.259871959686279 C 1.5176849365234375 5.133216381072998 1.5272216796875 5.005951881408691 1.5367584228515625 4.87929630279541 C 1.5912322998046875 4.582751750946045 1.633575439453125 4.295949935913086 1.732757568359375 4.042029857635498 C 2.23919677734375 2.746854782104492 3.1914215087890625 2.017367362976074 4.5673828125 1.5880780220031738 C 5.022552490234375 1.4455904960632324 5.5553131103515625 1.320152759552002 6.1304931640625 1.3164992332458496 Z M 13.262451171875 16.214970588684082 C 13.84381103515625 16.201574325561523 14.154098510742188 16.53648090362549 14.490936279296875 16.776395797729492 C 15.180099487304688 17.26657724380493 15.822113037109375 17.811561584472656 16.493881225585938 18.317574977874756 C 16.802719116210938 18.550182819366455 17.267425537109375 18.82419729232788 17.397354125976562 19.221213817596436 C 17.470138549804688 19.44407892227173 17.388351440429688 19.662681579589844 17.330368041992188 19.84414005279541 C 17.214096069335938 20.20888376235962 17.097747802734375 20.573627471923828 16.981475830078125 20.938371181488037 C 16.975067138671875 20.931673049926758 16.968658447265625 20.925583839416504 16.962326049804688 20.91949462890625 C 15.278289794921875 19.590828895568848 13.593719482421875 18.26155424118042 11.909683227539062 16.933497428894043 C 11.911285400390625 16.92984390258789 11.912887573242188 16.926799297332764 11.91448974609375 16.923754692077637 C 12.36370849609375 16.687493324279785 12.813156127929688 16.451231956481934 13.262451171875 16.214970588684082 Z"/></g></svg>