<svg version="1.1" xmlns="http://www.w3.org/2000/svg" xmlns:xlink="http://www.w3.org/1999/xlink" width="39" height="69"><defs/><g><path fill="rgb(255,255,255)" stroke="none" paint-order="stroke fill markers" fill-rule="evenodd" d=" M 20.022903442382812 20.34315013885498 C 24.132247924804688 20.344976902008057 27.276931762695312 21.053152084350586 29.56414794921875 22.837899684906006 C 33.736968994140625 26.094409465789795 34.23677062988281 32.51365518569946 35.2889404296875 38.979787826538086 C 37.49131774902344 52.515493869781494 34.67362976074219 61.63530445098877 25.160537719726562 65.54092407226562 C 23.263107299804688 66.32034301757812 20.425506591796875 67.37864780426025 17.380691528320312 66.8616738319397 C 9.568191528320312 65.53605270385742 4.3817291259765625 61.0939736366272 2.555023193359375 53.80153512954712 C 1.7807159423828125 50.710651874542236 1.8988189697265625 46.12304067611694 2.408233642578125 42.795287132263184 C 4.3338165283203125 30.21558713912964 3.8342437744140625 20.242069244384766 18.408218383789062 20.34315013885498 C 18.48687744140625 16.95085096359253 22.013946533203125 15.22943115234375 21.050430297851562 11.83165168762207 C 19.989334106445312 8.08922290802002 14.427963256835938 7.93455696105957 16.059585571289062 1.999403476715088 C 16.108489990234375 1.999403476715088 16.157470703125 1.999403476715088 16.206375122070312 1.999403476715088 C 16.646743774414062 2.097439765930176 17.087188720703125 2.1948671340942383 17.527481079101562 2.292903423309326 C 17.353530883789062 8.506942749023438 21.644607543945312 7.220292568206787 22.665115356445312 11.684901714324951 C 23.551193237304688 15.561902046203613 20.239349365234375 16.987386226654053 20.022903442382812 20.34315013885498 Z M 18.114639282226562 44.262786865234375 C 18.114639282226562 43.08939599990845 18.114639282226562 41.91478729248047 18.114639282226562 40.740787506103516 C 17.363525390625 40.5197491645813 16.714111328125 40.12760400772095 16.499954223632812 39.42003774642944 C 16.499954223632812 35.45839738845825 16.499954223632812 31.49553918838501 16.499954223632812 27.533289909362793 C 16.732040405273438 26.82146120071411 17.35162353515625 26.441494464874268 18.114639282226562 26.21254014968872 C 18.114639282226562 24.794363021850586 18.114639282226562 23.375576972961426 18.114639282226562 21.95739984512329 C 6.6967926025390625 21.834397792816162 4.3892059326171875 30.415922164916992 4.022918701171875 41.034287452697754 C 8.310333251953125 42.36477994918823 12.253585815429688 44.215291023254395 18.114639282226562 44.262786865234375 Z M 19.876113891601562 21.95739984512329 C 19.876113891601562 23.375576972961426 19.876113891601562 24.794363021850586 19.876113891601562 26.21254014968872 C 20.627227783203125 26.433578491210938 21.276641845703125 26.82572364807129 21.490798950195312 27.533289909362793 C 21.490798950195312 31.49553918838501 21.490798950195312 35.45839738845825 21.490798950195312 39.42003774642944 C 21.258712768554688 40.13247537612915 20.639129638671875 40.512442111968994 19.876113891601562 40.740787506103516 C 19.876113891601562 41.91478729248047 19.876113891601562 43.08939599990845 19.876113891601562 44.262786865234375 C 23.425613403320312 44.380308628082275 33.49717712402344 42.41105794906616 33.96783447265625 40.30053758621216 C 31.4754638671875 30.14008092880249 32.95716857910156 21.766807556152344 19.876113891601562 21.95739984512329 Z M 18.408218383789062 27.680039882659912 C 17.955337524414062 28.469810485839844 17.881561279296875 38.54745388031006 18.408218383789062 39.126537799835205 C 18.897491455078125 39.126537799835205 19.3868408203125 39.126537799835205 19.876113891601562 39.126537799835205 C 19.912200927734375 37.230966567993164 20.30572509765625 28.638481616973877 19.582534790039062 27.82678985595703 C 19.191146850585938 27.778076171875 18.799606323242188 27.72936248779297 18.408218383789062 27.680039882659912 Z M 33.96783447265625 42.648537158966064 C 29.341751098632812 45.9421911239624 18.181625366210938 46.90976667404175 11.068740844726562 45.14328670501709 C 8.671432495117188 44.36082315444946 6.2734375 43.578359603881836 3.876129150390625 42.795287132263184 C 3.686614990234375 55.0145058631897 5.6892547607421875 62.05911350250244 15.178848266601562 64.80717420578003 C 23.324142456054688 67.16674327850342 30.55535888671875 61.75282621383667 32.79351806640625 56.58978462219238 C 33.66502380371094 54.57912731170654 33.71583557128906 52.80168676376343 34.1146240234375 50.13278579711914 C 34.397064208984375 48.24269485473633 34.67607116699219 44.39796733856201 33.96783447265625 42.648537158966064 Z"/></g></svg>