<svg version="1.1" xmlns="http://www.w3.org/2000/svg" xmlns:xlink="http://www.w3.org/1999/xlink" width="24" height="18"><defs/><g><path fill="rgb(26,26,26)" stroke="none" paint-order="stroke fill markers" fill-rule="evenodd" d=" M 19.144134521484375 14.943726062774658 C 19.482421875 15.369970798492432 19.784469604492188 15.653119087219238 20.049972534179688 15.793779850006104 C 20.315780639648438 15.934440612792969 20.654067993164062 16.005075454711914 21.064529418945312 16.005075454711914 C 21.596145629882812 16.005075454711914 22.049102783203125 15.872939586639404 22.423324584960938 15.608667850494385 C 22.7978515625 15.344396114349365 22.985000610351562 15.03323745727539 22.985000610351562 14.675191879272461 C 22.985000610351562 14.453544616699219 22.803802490234375 14.112548828125 22.441482543945312 13.652204513549805 C 22.441482543945312 13.652204513549805 12.476959228515625 1.0091767311096191 12.476959228515625 1.0091767311096191 C 12.476959228515625 1.0091767311096191 2.512359619140625 13.652204513549805 2.512359619140625 13.652204513549805 C 2.1622467041015625 14.112548828125 1.98699951171875 14.453544616699219 1.98699951171875 14.675191879272461 C 1.98699951171875 15.03323745727539 2.17437744140625 15.344396114349365 2.5485992431640625 15.608667850494385 C 2.923126220703125 15.872939586639404 3.3701324462890625 16.005075454711914 3.889312744140625 16.005075454711914 C 4.300079345703125 16.005075454711914 4.63836669921875 15.934440612792969 4.90386962890625 15.793779850006104 C 5.169677734375 15.653119087219238 5.4717254638671875 15.369970798492432 5.8097076416015625 14.943726062774658 C 5.8097076416015625 14.943726062774658 12.476959228515625 6.455366611480713 12.476959228515625 6.455366611480713 C 12.476959228515625 6.455366611480713 19.144134521484375 14.943726062774658 19.144134521484375 14.943726062774658 Z"/></g></svg>